<svg width="120" height="120" viewBox="0 0 120 120" fill="none" xmlns="http://www.w3.org/2000/svg">
  <path
    d="M 95.53,49.68 L 109.22,51.21 L 109.22,68.79 L 95.53,70.32 A 37,37 0 0,1 92.42,77.82 L 101.02,88.59 L 88.59,101.02 L 77.82,92.42 A 37,37 0 0,1 70.32,95.53 L 68.79,109.22 L 51.21,109.22 L 49.68,95.53 A 37,37 0 0,1 42.18,92.42 L 31.41,101.02 L 18.98,88.59 L 27.58,77.82 A 37,37 0 0,1 24.47,70.32 L 10.78,68.79 L 10.78,51.21 L 24.47,49.68 A 37,37 0 0,1 27.58,42.18 L 18.98,31.41 L 31.41,18.98 L 42.18,27.58 A 37,37 0 0,1 49.68,24.47 L 51.21,10.78 L 68.79,10.78 L 70.32,24.47 A 37,37 0 0,1 77.82,27.58 L 88.59,18.98 L 101.02,31.41 L 92.42,42.18 A 37,37 0 0,1 95.53,49.68 Z"
    fill="currentColor"
  />
  <circle cx="60" cy="60" r="14" fill="white"/>
</svg>
